<svg width="1072" height="1106" viewBox="0 0 1072 1106" fill="none" xmlns="http://www.w3.org/2000/svg">
<path opacity="0.010101" d="M349.953 344.873L647.034 118.492L954.139 331.077L846.858 688.843L473.451 697.369L349.953 344.873Z" stroke="url(#paint0_linear)"/>
<path opacity="0.020202" d="M350.905 345.771L651.892 124.609L955.239 342.522L841.731 698.361L468.232 700.369L350.905 345.771Z" stroke="url(#paint1_linear)"/>
<path opacity="0.030303" d="M351.853 346.601L656.654 130.726L956.152 353.9L836.451 707.704L462.974 703.193L351.853 346.601Z" stroke="url(#paint2_linear)"/>
<path opacity="0.040404" d="M352.796 347.365L661.318 136.842L956.876 365.209L831.018 716.87L457.676 705.842L352.796 347.365Z" stroke="url(#paint3_linear)"/>
<path opacity="0.050505" d="M353.736 348.064L665.885 142.957L957.412 376.448L825.436 725.859L452.344 708.316L353.736 348.064Z" stroke="url(#paint4_linear)"/>
<path opacity="0.0606061" d="M354.675 348.691L670.356 149.064L957.763 387.607L819.71 734.661L446.98 710.61L354.675 348.691Z" stroke="url(#paint5_linear)"/>
<path opacity="0.0707071" d="M355.612 349.255L674.729 155.168L957.93 398.69L813.84 743.283L441.587 712.73L355.612 349.255Z" stroke="url(#paint6_linear)"/>
<path opacity="0.0808081" d="M356.55 349.751L679.006 161.262L957.913 409.69L807.832 751.715L436.169 714.671L356.55 349.751Z" stroke="url(#paint7_linear)"/>
<path opacity="0.0909091" d="M357.49 350.179L683.186 167.347L957.715 420.604L801.687 759.958L430.728 716.433L357.49 350.179Z" stroke="url(#paint8_linear)"/>
<path opacity="0.10101" d="M358.433 350.54L687.27 173.42L957.338 431.43L795.411 768.009L425.267 718.016L358.433 350.54Z" stroke="url(#paint9_linear)"/>
<path opacity="0.111111" d="M359.38 350.834L691.258 179.48L956.782 442.164L789.006 775.865L419.791 719.42L359.38 350.834Z" stroke="url(#paint10_linear)"/>
<path opacity="0.121212" d="M360.332 351.06L695.151 185.525L956.049 452.803L782.475 783.525L414.301 720.645L360.332 351.06Z" stroke="url(#paint11_linear)"/>
<path opacity="0.131313" d="M361.29 351.22L698.947 191.553L955.141 463.344L775.821 790.987L408.801 721.691L361.29 351.22Z" stroke="url(#paint12_linear)"/>
<path opacity="0.141414" d="M362.258 351.314L702.65 197.564L954.061 473.784L769.051 798.248L403.296 722.557L362.258 351.314Z" stroke="url(#paint13_linear)"/>
<path opacity="0.151515" d="M363.233 351.34L706.256 203.554L952.809 484.12L762.164 805.306L397.786 723.243L363.233 351.34Z" stroke="url(#paint14_linear)"/>
<path opacity="0.161616" d="M364.218 351.3L709.768 209.523L951.386 494.349L755.165 812.159L392.274 723.749L364.218 351.3Z" stroke="url(#paint15_linear)"/>
<path opacity="0.171717" d="M365.214 351.193L713.186 215.469L949.797 504.469L748.058 818.805L386.766 724.076L365.214 351.193Z" stroke="url(#paint16_linear)"/>
<path opacity="0.181818" d="M366.222 351.021L716.51 221.39L948.041 514.475L740.847 825.243L381.264 724.222L366.222 351.021Z" stroke="url(#paint17_linear)"/>
<path opacity="0.191919" d="M367.243 350.782L719.74 227.285L946.121 524.366L733.535 831.47L375.769 724.19L367.243 350.782Z" stroke="url(#paint18_linear)"/>
<path opacity="0.20202" d="M368.28 350.478L722.878 233.151L944.04 534.138L726.127 837.485L370.288 723.977L368.28 350.478Z" stroke="url(#paint19_linear)"/>
<path opacity="0.212121" d="M369.332 350.109L725.924 238.988L941.799 543.789L718.625 843.287L364.821 723.586L369.332 350.109Z" stroke="url(#paint20_linear)"/>
<path opacity="0.222222" d="M370.401 349.674L728.878 244.794L939.4 553.316L711.033 848.873L359.372 723.016L370.401 349.674Z" stroke="url(#paint21_linear)"/>
<path opacity="0.232323" d="M371.487 349.175L731.74 250.567L936.846 562.716L703.356 854.243L353.945 722.267L371.487 349.175Z" stroke="url(#paint22_linear)"/>
<path opacity="0.242424" d="M372.593 348.611L734.512 256.306L934.139 571.987L695.596 859.394L348.542 721.341L372.593 348.611Z" stroke="url(#paint23_linear)"/>
<path opacity="0.252525" d="M373.72 347.983L737.195 262.008L931.282 581.125L687.76 864.326L343.168 720.236L373.72 347.983Z" stroke="url(#paint24_linear)"/>
<path opacity="0.262626" d="M374.867 347.291L739.787 267.673L928.275 590.129L679.848 869.036L337.823 718.954L374.867 347.291Z" stroke="url(#paint25_linear)"/>
<path opacity="0.272727" d="M376.037 346.536L742.291 273.298L925.123 598.995L671.865 873.524L332.512 717.496L376.037 346.536Z" stroke="url(#paint26_linear)"/>
<path opacity="0.282828" d="M377.23 345.718L744.707 278.883L921.827 607.721L663.817 877.788L327.238 715.862L377.23 345.718Z" stroke="url(#paint27_linear)"/>
<path opacity="0.292929" d="M378.448 344.837L747.035 284.426L918.389 616.305L655.705 881.828L322.003 714.052L378.448 344.837Z" stroke="url(#paint28_linear)"/>
<path opacity="0.30303" d="M379.692 343.894L749.277 289.925L914.813 624.744L647.534 885.642L316.812 712.068L379.692 343.894Z" stroke="url(#paint29_linear)"/>
<path opacity="0.313131" d="M380.962 342.89L751.433 295.379L911.1 633.036L639.309 889.23L311.666 709.91L380.962 342.89Z" stroke="url(#paint30_linear)"/>
<path opacity="0.323232" d="M382.261 341.825L753.504 300.787L907.254 641.178L631.034 892.59L306.57 707.579L382.261 341.825Z" stroke="url(#paint31_linear)"/>
<path opacity="0.333333" d="M383.588 340.698L755.491 306.145L903.277 649.169L622.711 895.721L301.525 705.076L383.588 340.698Z" stroke="url(#paint32_linear)"/>
<path opacity="0.343434" d="M384.945 339.512L757.394 311.455L899.171 657.005L614.345 898.624L296.536 702.402L384.945 339.512Z" stroke="url(#paint33_linear)"/>
<path opacity="0.353535" d="M386.338 338.266L759.22 316.713L894.944 664.685L605.945 901.296L291.608 699.558L386.338 338.266Z" stroke="url(#paint34_linear)"/>
<path opacity="0.363636" d="M387.755 336.96L760.956 321.918L890.587 672.206L597.502 903.737L286.734 696.544L387.755 336.96Z" stroke="url(#paint35_linear)"/>
<path opacity="0.373737" d="M389.209 335.596L762.617 327.071L886.114 679.567L589.033 905.948L281.929 693.362L389.209 335.596Z" stroke="url(#paint36_linear)"/>
<path opacity="0.383838" d="M390.692 334.174L764.191 332.166L881.518 686.765L580.532 907.926L277.184 690.013L390.692 334.174Z" stroke="url(#paint37_linear)"/>
<path opacity="0.393939" d="M392.218 332.695L765.695 337.206L876.815 693.798L572.015 909.673L272.517 686.499L392.218 332.695Z" stroke="url(#paint38_linear)"/>
<path opacity="0.40404" d="M393.778 331.16L767.12 342.188L872.001 700.665L563.478 911.187L267.921 682.821L393.778 331.16Z" stroke="url(#paint39_linear)"/>
<path opacity="0.414141" d="M395.376 329.568L768.468 347.11L867.076 707.363L554.927 912.469L263.4 678.979L395.376 329.568Z" stroke="url(#paint40_linear)"/>
<path opacity="0.424242" d="M397.009 327.92L769.738 351.971L862.044 713.89L546.363 913.517L258.955 674.975L397.009 327.92Z" stroke="url(#paint41_linear)"/>
<path opacity="0.434343" d="M398.683 326.219L770.936 356.771L856.912 720.246L537.795 914.333L254.594 670.811L398.683 326.219Z" stroke="url(#paint42_linear)"/>
<path opacity="0.444444" d="M400.394 324.462L772.057 361.506L851.675 726.426L529.22 914.914L250.312 666.487L400.394 324.462Z" stroke="url(#paint43_linear)"/>
<path opacity="0.454545" d="M402.151 322.653L773.111 366.178L846.349 732.432L520.652 915.264L246.123 662.006L402.151 322.653Z" stroke="url(#paint44_linear)"/>
<path opacity="0.464646" d="M403.946 320.791L774.09 370.783L840.925 738.26L512.087 915.379L242.02 657.369L403.946 320.791Z" stroke="url(#paint45_linear)"/>
<path opacity="0.474747" d="M405.78 318.876L774.995 375.321L835.406 743.908L503.528 915.262L238.004 652.578L405.78 318.876Z" stroke="url(#paint46_linear)"/>
<path opacity="0.484848" d="M407.668 316.911L775.841 379.791L829.81 749.376L494.992 914.912L234.093 647.634L407.668 316.911Z" stroke="url(#paint47_linear)"/>
<path opacity="0.494949" d="M409.589 314.895L776.609 384.191L824.12 754.662L486.463 914.329L230.269 642.538L409.589 314.895Z" stroke="url(#paint48_linear)"/>
<path opacity="0.50505" d="M411.565 312.83L777.32 388.521L818.358 759.765L477.967 913.515L226.555 637.294L411.565 312.83Z" stroke="url(#paint49_linear)"/>
<path opacity="0.515152" d="M413.584 310.716L777.962 392.779L812.515 764.682L469.492 912.468L222.939 631.902L413.584 310.716Z" stroke="url(#paint50_linear)"/>
<path opacity="0.525253" d="M415.65 308.555L778.54 396.964L806.597 769.413L461.047 911.19L219.428 626.364L415.65 308.555Z" stroke="url(#paint51_linear)"/>
<path opacity="0.535354" d="M417.762 306.345L779.054 401.075L800.607 773.957L452.635 909.681L216.024 620.682L417.762 306.345Z" stroke="url(#paint52_linear)"/>
<path opacity="0.545455" d="M419.925 304.09L779.509 405.11L794.55 778.312L444.262 907.943L212.731 614.858L419.925 304.09Z" stroke="url(#paint53_linear)"/>
<path opacity="0.555556" d="M422.139 301.79L779.905 409.07L788.431 782.478L435.934 905.975L209.553 608.894L422.139 301.79Z" stroke="url(#paint54_linear)"/>
<path opacity="0.565657" d="M424.401 299.444L780.24 412.953L782.248 786.452L427.649 903.779L206.488 602.792L424.401 299.444Z" stroke="url(#paint55_linear)"/>
<path opacity="0.575758" d="M426.711 297.055L780.515 416.756L776.005 790.233L419.413 901.354L203.538 596.553L426.711 297.055Z" stroke="url(#paint56_linear)"/>
<path opacity="0.585859" d="M429.081 294.624L780.742 420.481L769.714 793.823L411.237 898.703L200.714 590.181L429.081 294.624Z" stroke="url(#paint57_linear)"/>
<path opacity="0.59596" d="M431.496 292.15L780.907 424.126L763.365 797.218L403.112 895.826L198.006 583.677L431.496 292.15Z" stroke="url(#paint58_linear)"/>
<path opacity="0.606061" d="M433.967 289.635L781.021 427.689L756.97 800.418L395.051 892.724L195.424 577.043L433.967 289.635Z" stroke="url(#paint59_linear)"/>
<path opacity="0.616162" d="M436.493 287.081L781.086 431.17L750.533 803.423L387.058 889.398L192.971 570.281L436.493 287.081Z" stroke="url(#paint60_linear)"/>
<path opacity="0.626263" d="M439.074 284.487L781.1 434.569L744.055 806.232L379.135 885.851L190.647 563.395L439.074 284.487Z" stroke="url(#paint61_linear)"/>
<path opacity="0.636364" d="M441.71 281.856L781.063 437.884L737.538 808.843L371.284 882.081L188.452 556.385L441.71 281.856Z" stroke="url(#paint62_linear)"/>
<path opacity="0.646465" d="M444.403 279.187L780.982 441.113L730.989 811.257L363.513 878.092L186.393 549.254L444.403 279.187Z" stroke="url(#paint63_linear)"/>
<path opacity="0.656566" d="M447.15 276.482L780.851 444.258L724.406 813.473L355.82 873.884L184.466 542.005L447.15 276.482Z" stroke="url(#paint64_linear)"/>
<path opacity="0.666667" d="M449.957 273.742L780.68 447.316L717.799 815.49L348.215 869.459L182.679 534.641L449.957 273.742Z" stroke="url(#paint65_linear)"/>
<path opacity="0.676768" d="M452.82 270.968L780.464 450.288L711.168 817.308L340.697 864.819L181.03 527.162L452.82 270.968Z" stroke="url(#paint66_linear)"/>
<path opacity="0.686869" d="M455.739 268.16L780.202 453.171L704.511 818.925L333.268 859.963L179.518 519.572L455.739 268.16Z" stroke="url(#paint67_linear)"/>
<path opacity="0.69697" d="M458.721 265.32L779.907 455.965L697.844 820.344L325.941 854.896L178.155 511.873L458.721 265.32Z" stroke="url(#paint68_linear)"/>
<path opacity="0.707071" d="M461.763 262.45L779.573 458.672L691.163 821.562L318.714 849.619L176.937 504.069L461.763 262.45Z" stroke="url(#paint69_linear)"/>
<path opacity="0.717172" d="M464.863 259.55L779.2 461.288L684.47 822.58L311.588 844.132L175.864 496.16L464.863 259.55Z" stroke="url(#paint70_linear)"/>
<path opacity="0.727273" d="M468.027 256.62L778.795 463.813L677.774 823.397L304.573 838.439L174.942 488.151L468.027 256.62Z" stroke="url(#paint71_linear)"/>
<path opacity="0.737374" d="M471.247 253.662L778.351 466.248L671.07 824.014L297.663 832.54L174.165 480.043L471.247 253.662Z" stroke="url(#paint72_linear)"/>
<path opacity="0.747475" d="M474.534 250.678L777.882 468.591L664.374 824.43L290.874 826.438L173.547 471.84L474.534 250.678Z" stroke="url(#paint73_linear)"/>
<path opacity="0.757576" d="M477.88 247.668L777.378 470.842L657.677 824.646L284.2 820.135L173.079 463.543L477.88 247.668Z" stroke="url(#paint74_linear)"/>
<path opacity="0.767677" d="M481.289 244.634L776.846 473L650.989 824.661L277.647 813.633L172.767 455.156L481.289 244.634Z" stroke="url(#paint75_linear)"/>
<path opacity="0.777778" d="M484.76 241.575L776.287 475.066L644.311 824.477L271.219 806.934L172.611 446.681L484.76 241.575Z" stroke="url(#paint76_linear)"/>
<path opacity="0.787879" d="M488.298 238.495L775.705 477.038L637.652 824.092L264.922 800.041L172.616 438.122L488.298 238.495Z" stroke="url(#paint77_linear)"/>
<path opacity="0.79798" d="M491.897 235.393L775.097 478.915L631.008 823.507L258.755 792.955L172.78 429.48L491.897 235.393Z" stroke="url(#paint78_linear)"/>
<path opacity="0.808081" d="M495.562 232.271L774.47 480.698L624.388 822.723L252.725 785.679L173.106 420.759L495.562 232.271Z" stroke="url(#paint79_linear)"/>
<path opacity="0.818182" d="M499.287 229.129L773.817 482.387L617.789 821.74L246.829 778.215L173.591 411.961L499.287 229.129Z" stroke="url(#paint80_linear)"/>
<path opacity="0.828283" d="M503.082 225.97L773.15 483.98L611.223 820.559L241.079 770.566L174.244 403.09L503.082 225.97Z" stroke="url(#paint81_linear)"/>
<path opacity="0.838384" d="M506.942 222.794L772.466 485.478L604.69 819.18L235.475 762.735L175.064 394.148L506.942 222.794Z" stroke="url(#paint82_linear)"/>
<path opacity="0.848485" d="M510.863 219.602L771.761 486.88L598.187 817.603L230.013 754.723L176.044 385.138L510.863 219.602Z" stroke="url(#paint83_linear)"/>
<path opacity="0.858586" d="M514.852 216.396L771.046 488.187L591.726 815.83L224.706 746.534L177.195 376.063L514.852 216.396Z" stroke="url(#paint84_linear)"/>
<path opacity="0.868687" d="M518.905 213.176L770.317 489.397L585.306 813.86L219.551 738.169L178.513 366.926L518.905 213.176Z" stroke="url(#paint85_linear)"/>
<path opacity="0.878788" d="M523.025 209.943L769.578 490.51L578.933 811.695L214.555 729.632L180.002 357.729L523.025 209.943Z" stroke="url(#paint86_linear)"/>
<path opacity="0.888889" d="M527.216 206.701L768.835 491.527L572.613 809.337L209.723 720.927L181.666 348.478L527.216 206.701Z" stroke="url(#paint87_linear)"/>
<path opacity="0.89899" d="M531.465 203.447L768.076 492.447L566.337 806.783L205.045 712.054L183.493 339.172L531.465 203.447Z" stroke="url(#paint88_linear)"/>
<path opacity="0.909091" d="M535.788 200.185L767.319 493.271L560.126 804.038L200.542 703.018L185.5 329.816L535.788 200.185Z" stroke="url(#paint89_linear)"/>
<path opacity="0.919192" d="M540.176 196.916L766.557 493.998L553.971 801.102L196.205 693.821L187.68 320.414L540.176 196.916Z" stroke="url(#paint90_linear)"/>
<path opacity="0.929293" d="M544.628 193.64L765.79 494.627L547.877 797.974L192.038 684.466L190.03 310.967L544.628 193.64Z" stroke="url(#paint91_linear)"/>
<path opacity="0.939394" d="M549.149 190.358L765.024 495.159L541.85 794.657L188.046 674.956L192.557 301.479L549.149 190.358Z" stroke="url(#paint92_linear)"/>
<path opacity="0.949495" d="M553.735 187.073L764.257 495.595L535.89 791.153L184.229 665.295L195.258 291.953L553.735 187.073Z" stroke="url(#paint93_linear)"/>
<path opacity="0.959596" d="M558.393 183.785L763.499 495.934L530.009 787.461L180.598 655.485L198.14 282.393L558.393 183.785Z" stroke="url(#paint94_linear)"/>
<path opacity="0.969697" d="M563.115 180.495L762.742 496.176L524.2 783.584L177.145 645.53L201.196 272.801L563.115 180.495Z" stroke="url(#paint95_linear)"/>
<path opacity="0.979798" d="M567.908 177.204L761.995 496.321L518.473 779.522L173.881 635.432L204.433 263.179L567.908 177.204Z" stroke="url(#paint96_linear)"/>
<path opacity="0.989899" d="M572.763 173.914L761.252 496.37L512.824 775.277L170.799 625.196L207.844 253.533L572.763 173.914Z" stroke="url(#paint97_linear)"/>
<path d="M577.688 170.625L760.52 496.322L507.263 770.851L167.909 614.823L211.435 243.863L577.688 170.625Z" stroke="url(#paint98_linear)"/>
<defs>
<linearGradient id="paint0_linear" x1="647.02" y1="117.874" x2="661.554" y2="754.388" gradientUnits="userSpaceOnUse">
<stop stop-color="#55ABC3"/>
<stop offset="1" stop-color="#557AC3"/>
</linearGradient>
<linearGradient id="paint1_linear" x1="651.889" y1="123.991" x2="655.311" y2="760.662" gradientUnits="userSpaceOnUse">
<stop stop-color="#55ABC3"/>
<stop offset="1" stop-color="#557AC3"/>
</linearGradient>
<linearGradient id="paint2_linear" x1="656.661" y1="130.108" x2="648.972" y2="766.742" gradientUnits="userSpaceOnUse">
<stop stop-color="#55ABC3"/>
<stop offset="1" stop-color="#557AC3"/>
</linearGradient>
<linearGradient id="paint3_linear" x1="661.336" y1="136.224" x2="642.537" y2="772.627" gradientUnits="userSpaceOnUse">
<stop stop-color="#55ABC3"/>
<stop offset="1" stop-color="#557AC3"/>
</linearGradient>
<linearGradient id="paint4_linear" x1="665.914" y1="142.34" x2="636.011" y2="778.317" gradientUnits="userSpaceOnUse">
<stop stop-color="#55ABC3"/>
<stop offset="1" stop-color="#557AC3"/>
</linearGradient>
<linearGradient id="paint5_linear" x1="670.396" y1="148.448" x2="629.398" y2="783.806" gradientUnits="userSpaceOnUse">
<stop stop-color="#55ABC3"/>
<stop offset="1" stop-color="#557AC3"/>
</linearGradient>
<linearGradient id="paint6_linear" x1="674.779" y1="154.552" x2="622.699" y2="789.098" gradientUnits="userSpaceOnUse">
<stop stop-color="#55ABC3"/>
<stop offset="1" stop-color="#557AC3"/>
</linearGradient>
<linearGradient id="paint7_linear" x1="679.067" y1="160.647" x2="615.921" y2="794.188" gradientUnits="userSpaceOnUse">
<stop stop-color="#55ABC3"/>
<stop offset="1" stop-color="#557AC3"/>
</linearGradient>
<linearGradient id="paint8_linear" x1="683.258" y1="166.733" x2="609.064" y2="799.075" gradientUnits="userSpaceOnUse">
<stop stop-color="#55ABC3"/>
<stop offset="1" stop-color="#557AC3"/>
</linearGradient>
<linearGradient id="paint9_linear" x1="687.353" y1="172.807" x2="602.135" y2="803.758" gradientUnits="userSpaceOnUse">
<stop stop-color="#55ABC3"/>
<stop offset="1" stop-color="#557AC3"/>
</linearGradient>
<linearGradient id="paint10_linear" x1="691.352" y1="178.869" x2="595.135" y2="808.236" gradientUnits="userSpaceOnUse">
<stop stop-color="#55ABC3"/>
<stop offset="1" stop-color="#557AC3"/>
</linearGradient>
<linearGradient id="paint11_linear" x1="695.255" y1="184.915" x2="588.069" y2="812.508" gradientUnits="userSpaceOnUse">
<stop stop-color="#55ABC3"/>
<stop offset="1" stop-color="#557AC3"/>
</linearGradient>
<linearGradient id="paint12_linear" x1="699.062" y1="190.946" x2="580.939" y2="816.572" gradientUnits="userSpaceOnUse">
<stop stop-color="#55ABC3"/>
<stop offset="1" stop-color="#557AC3"/>
</linearGradient>
<linearGradient id="paint13_linear" x1="702.775" y1="196.959" x2="573.751" y2="820.428" gradientUnits="userSpaceOnUse">
<stop stop-color="#55ABC3"/>
<stop offset="1" stop-color="#557AC3"/>
</linearGradient>
<linearGradient id="paint14_linear" x1="706.392" y1="202.951" x2="566.507" y2="824.074" gradientUnits="userSpaceOnUse">
<stop stop-color="#55ABC3"/>
<stop offset="1" stop-color="#557AC3"/>
</linearGradient>
<linearGradient id="paint15_linear" x1="709.914" y1="208.923" x2="559.21" y2="827.509" gradientUnits="userSpaceOnUse">
<stop stop-color="#55ABC3"/>
<stop offset="1" stop-color="#557AC3"/>
</linearGradient>
<linearGradient id="paint16_linear" x1="713.342" y1="214.871" x2="551.866" y2="830.734" gradientUnits="userSpaceOnUse">
<stop stop-color="#55ABC3"/>
<stop offset="1" stop-color="#557AC3"/>
</linearGradient>
<linearGradient id="paint17_linear" x1="716.677" y1="220.795" x2="544.477" y2="833.746" gradientUnits="userSpaceOnUse">
<stop stop-color="#55ABC3"/>
<stop offset="1" stop-color="#557AC3"/>
</linearGradient>
<linearGradient id="paint18_linear" x1="719.918" y1="226.693" x2="537.046" y2="836.544" gradientUnits="userSpaceOnUse">
<stop stop-color="#55ABC3"/>
<stop offset="1" stop-color="#557AC3"/>
</linearGradient>
<linearGradient id="paint19_linear" x1="723.066" y1="232.562" x2="529.579" y2="839.13" gradientUnits="userSpaceOnUse">
<stop stop-color="#55ABC3"/>
<stop offset="1" stop-color="#557AC3"/>
</linearGradient>
<linearGradient id="paint20_linear" x1="726.122" y1="238.403" x2="522.078" y2="841.501" gradientUnits="userSpaceOnUse">
<stop stop-color="#55ABC3"/>
<stop offset="1" stop-color="#557AC3"/>
</linearGradient>
<linearGradient id="paint21_linear" x1="729.086" y1="244.212" x2="514.548" y2="843.657" gradientUnits="userSpaceOnUse">
<stop stop-color="#55ABC3"/>
<stop offset="1" stop-color="#557AC3"/>
</linearGradient>
<linearGradient id="paint22_linear" x1="731.958" y1="249.988" x2="506.991" y2="845.598" gradientUnits="userSpaceOnUse">
<stop stop-color="#55ABC3"/>
<stop offset="1" stop-color="#557AC3"/>
</linearGradient>
<linearGradient id="paint23_linear" x1="734.74" y1="255.731" x2="499.413" y2="847.324" gradientUnits="userSpaceOnUse">
<stop stop-color="#55ABC3"/>
<stop offset="1" stop-color="#557AC3"/>
</linearGradient>
<linearGradient id="paint24_linear" x1="737.433" y1="261.438" x2="491.817" y2="848.833" gradientUnits="userSpaceOnUse">
<stop stop-color="#55ABC3"/>
<stop offset="1" stop-color="#557AC3"/>
</linearGradient>
<linearGradient id="paint25_linear" x1="740.035" y1="267.107" x2="484.205" y2="850.126" gradientUnits="userSpaceOnUse">
<stop stop-color="#55ABC3"/>
<stop offset="1" stop-color="#557AC3"/>
</linearGradient>
<linearGradient id="paint26_linear" x1="742.549" y1="272.737" x2="476.582" y2="851.203" gradientUnits="userSpaceOnUse">
<stop stop-color="#55ABC3"/>
<stop offset="1" stop-color="#557AC3"/>
</linearGradient>
<linearGradient id="paint27_linear" x1="744.975" y1="278.326" x2="468.953" y2="852.063" gradientUnits="userSpaceOnUse">
<stop stop-color="#55ABC3"/>
<stop offset="1" stop-color="#557AC3"/>
</linearGradient>
<linearGradient id="paint28_linear" x1="747.312" y1="283.874" x2="461.319" y2="852.705" gradientUnits="userSpaceOnUse">
<stop stop-color="#55ABC3"/>
<stop offset="1" stop-color="#557AC3"/>
</linearGradient>
<linearGradient id="paint29_linear" x1="749.564" y1="289.378" x2="453.687" y2="853.132" gradientUnits="userSpaceOnUse">
<stop stop-color="#55ABC3"/>
<stop offset="1" stop-color="#557AC3"/>
</linearGradient>
<linearGradient id="paint30_linear" x1="751.73" y1="294.837" x2="446.059" y2="853.341" gradientUnits="userSpaceOnUse">
<stop stop-color="#55ABC3"/>
<stop offset="1" stop-color="#557AC3"/>
</linearGradient>
<linearGradient id="paint31_linear" x1="753.81" y1="300.25" x2="438.439" y2="853.334" gradientUnits="userSpaceOnUse">
<stop stop-color="#55ABC3"/>
<stop offset="1" stop-color="#557AC3"/>
</linearGradient>
<linearGradient id="paint32_linear" x1="755.806" y1="305.614" x2="430.83" y2="853.11" gradientUnits="userSpaceOnUse">
<stop stop-color="#55ABC3"/>
<stop offset="1" stop-color="#557AC3"/>
</linearGradient>
<linearGradient id="paint33_linear" x1="757.719" y1="310.929" x2="423.238" y2="852.67" gradientUnits="userSpaceOnUse">
<stop stop-color="#55ABC3"/>
<stop offset="1" stop-color="#557AC3"/>
</linearGradient>
<linearGradient id="paint34_linear" x1="759.554" y1="316.193" x2="415.668" y2="852.014" gradientUnits="userSpaceOnUse">
<stop stop-color="#55ABC3"/>
<stop offset="1" stop-color="#557AC3"/>
</linearGradient>
<linearGradient id="paint35_linear" x1="761.299" y1="321.404" x2="408.115" y2="851.142" gradientUnits="userSpaceOnUse">
<stop stop-color="#55ABC3"/>
<stop offset="1" stop-color="#557AC3"/>
</linearGradient>
<linearGradient id="paint36_linear" x1="762.968" y1="326.562" x2="400.593" y2="850.056" gradientUnits="userSpaceOnUse">
<stop stop-color="#55ABC3"/>
<stop offset="1" stop-color="#557AC3"/>
</linearGradient>
<linearGradient id="paint37_linear" x1="764.552" y1="331.664" x2="393.095" y2="848.754" gradientUnits="userSpaceOnUse">
<stop stop-color="#55ABC3"/>
<stop offset="1" stop-color="#557AC3"/>
</linearGradient>
<linearGradient id="paint38_linear" x1="766.064" y1="336.71" x2="385.639" y2="847.238" gradientUnits="userSpaceOnUse">
<stop stop-color="#55ABC3"/>
<stop offset="1" stop-color="#557AC3"/>
</linearGradient>
<linearGradient id="paint39_linear" x1="767.498" y1="341.699" x2="378.221" y2="845.509" gradientUnits="userSpaceOnUse">
<stop stop-color="#55ABC3"/>
<stop offset="1" stop-color="#557AC3"/>
</linearGradient>
<linearGradient id="paint40_linear" x1="768.854" y1="346.628" x2="370.844" y2="843.567" gradientUnits="userSpaceOnUse">
<stop stop-color="#55ABC3"/>
<stop offset="1" stop-color="#557AC3"/>
</linearGradient>
<linearGradient id="paint41_linear" x1="770.133" y1="351.496" x2="363.511" y2="841.414" gradientUnits="userSpaceOnUse">
<stop stop-color="#55ABC3"/>
<stop offset="1" stop-color="#557AC3"/>
</linearGradient>
<linearGradient id="paint42_linear" x1="771.339" y1="356.302" x2="356.229" y2="839.049" gradientUnits="userSpaceOnUse">
<stop stop-color="#55ABC3"/>
<stop offset="1" stop-color="#557AC3"/>
</linearGradient>
<linearGradient id="paint43_linear" x1="772.468" y1="361.045" x2="348.995" y2="836.473" gradientUnits="userSpaceOnUse">
<stop stop-color="#55ABC3"/>
<stop offset="1" stop-color="#557AC3"/>
</linearGradient>
<linearGradient id="paint44_linear" x1="773.53" y1="365.724" x2="341.824" y2="833.689" gradientUnits="userSpaceOnUse">
<stop stop-color="#55ABC3"/>
<stop offset="1" stop-color="#557AC3"/>
</linearGradient>
<linearGradient id="paint45_linear" x1="774.517" y1="370.336" x2="334.71" y2="830.696" gradientUnits="userSpaceOnUse">
<stop stop-color="#55ABC3"/>
<stop offset="1" stop-color="#557AC3"/>
</linearGradient>
<linearGradient id="paint46_linear" x1="775.43" y1="374.882" x2="327.656" y2="827.496" gradientUnits="userSpaceOnUse">
<stop stop-color="#55ABC3"/>
<stop offset="1" stop-color="#557AC3"/>
</linearGradient>
<linearGradient id="paint47_linear" x1="776.283" y1="379.36" x2="320.678" y2="824.09" gradientUnits="userSpaceOnUse">
<stop stop-color="#55ABC3"/>
<stop offset="1" stop-color="#557AC3"/>
</linearGradient>
<linearGradient id="paint48_linear" x1="777.059" y1="383.767" x2="313.762" y2="820.479" gradientUnits="userSpaceOnUse">
<stop stop-color="#55ABC3"/>
<stop offset="1" stop-color="#557AC3"/>
</linearGradient>
<linearGradient id="paint49_linear" x1="777.777" y1="388.105" x2="306.929" y2="816.665" gradientUnits="userSpaceOnUse">
<stop stop-color="#55ABC3"/>
<stop offset="1" stop-color="#557AC3"/>
</linearGradient>
<linearGradient id="paint50_linear" x1="778.426" y1="392.371" x2="300.17" y2="812.648" gradientUnits="userSpaceOnUse">
<stop stop-color="#55ABC3"/>
<stop offset="1" stop-color="#557AC3"/>
</linearGradient>
<linearGradient id="paint51_linear" x1="779.012" y1="396.564" x2="293.493" y2="808.43" gradientUnits="userSpaceOnUse">
<stop stop-color="#55ABC3"/>
<stop offset="1" stop-color="#557AC3"/>
</linearGradient>
<linearGradient id="paint52_linear" x1="779.532" y1="400.683" x2="286.9" y2="804.013" gradientUnits="userSpaceOnUse">
<stop stop-color="#55ABC3"/>
<stop offset="1" stop-color="#557AC3"/>
</linearGradient>
<linearGradient id="paint53_linear" x1="779.994" y1="404.727" x2="280.397" y2="799.398" gradientUnits="userSpaceOnUse">
<stop stop-color="#55ABC3"/>
<stop offset="1" stop-color="#557AC3"/>
</linearGradient>
<linearGradient id="paint54_linear" x1="780.396" y1="408.696" x2="273.988" y2="794.587" gradientUnits="userSpaceOnUse">
<stop stop-color="#55ABC3"/>
<stop offset="1" stop-color="#557AC3"/>
</linearGradient>
<linearGradient id="paint55_linear" x1="780.738" y1="412.587" x2="267.672" y2="789.581" gradientUnits="userSpaceOnUse">
<stop stop-color="#55ABC3"/>
<stop offset="1" stop-color="#557AC3"/>
</linearGradient>
<linearGradient id="paint56_linear" x1="781.02" y1="416.399" x2="261.453" y2="784.382" gradientUnits="userSpaceOnUse">
<stop stop-color="#55ABC3"/>
<stop offset="1" stop-color="#557AC3"/>
</linearGradient>
<linearGradient id="paint57_linear" x1="781.252" y1="420.133" x2="255.342" y2="778.992" gradientUnits="userSpaceOnUse">
<stop stop-color="#55ABC3"/>
<stop offset="1" stop-color="#557AC3"/>
</linearGradient>
<linearGradient id="paint58_linear" x1="781.424" y1="423.786" x2="249.331" y2="773.412" gradientUnits="userSpaceOnUse">
<stop stop-color="#55ABC3"/>
<stop offset="1" stop-color="#557AC3"/>
</linearGradient>
<linearGradient id="paint59_linear" x1="781.544" y1="427.359" x2="243.43" y2="767.645" gradientUnits="userSpaceOnUse">
<stop stop-color="#55ABC3"/>
<stop offset="1" stop-color="#557AC3"/>
</linearGradient>
<linearGradient id="paint60_linear" x1="781.614" y1="430.849" x2="237.643" y2="761.692" gradientUnits="userSpaceOnUse">
<stop stop-color="#55ABC3"/>
<stop offset="1" stop-color="#557AC3"/>
</linearGradient>
<linearGradient id="paint61_linear" x1="781.633" y1="434.257" x2="231.971" y2="755.556" gradientUnits="userSpaceOnUse">
<stop stop-color="#55ABC3"/>
<stop offset="1" stop-color="#557AC3"/>
</linearGradient>
<linearGradient id="paint62_linear" x1="781.602" y1="437.581" x2="226.417" y2="749.238" gradientUnits="userSpaceOnUse">
<stop stop-color="#55ABC3"/>
<stop offset="1" stop-color="#557AC3"/>
</linearGradient>
<linearGradient id="paint63_linear" x1="781.526" y1="440.82" x2="220.986" y2="742.741" gradientUnits="userSpaceOnUse">
<stop stop-color="#55ABC3"/>
<stop offset="1" stop-color="#557AC3"/>
</linearGradient>
<linearGradient id="paint64_linear" x1="781.4" y1="443.974" x2="215.677" y2="736.066" gradientUnits="userSpaceOnUse">
<stop stop-color="#55ABC3"/>
<stop offset="1" stop-color="#557AC3"/>
</linearGradient>
<linearGradient id="paint65_linear" x1="781.234" y1="447.043" x2="210.498" y2="729.217" gradientUnits="userSpaceOnUse">
<stop stop-color="#55ABC3"/>
<stop offset="1" stop-color="#557AC3"/>
</linearGradient>
<linearGradient id="paint66_linear" x1="781.022" y1="450.023" x2="205.449" y2="722.194" gradientUnits="userSpaceOnUse">
<stop stop-color="#55ABC3"/>
<stop offset="1" stop-color="#557AC3"/>
</linearGradient>
<linearGradient id="paint67_linear" x1="780.766" y1="452.916" x2="200.53" y2="715" gradientUnits="userSpaceOnUse">
<stop stop-color="#55ABC3"/>
<stop offset="1" stop-color="#557AC3"/>
</linearGradient>
<linearGradient id="paint68_linear" x1="780.474" y1="455.721" x2="195.753" y2="707.638" gradientUnits="userSpaceOnUse">
<stop stop-color="#55ABC3"/>
<stop offset="1" stop-color="#557AC3"/>
</linearGradient>
<linearGradient id="paint69_linear" x1="780.144" y1="458.437" x2="191.116" y2="700.112" gradientUnits="userSpaceOnUse">
<stop stop-color="#55ABC3"/>
<stop offset="1" stop-color="#557AC3"/>
</linearGradient>
<linearGradient id="paint70_linear" x1="779.775" y1="461.063" x2="186.619" y2="692.421" gradientUnits="userSpaceOnUse">
<stop stop-color="#55ABC3"/>
<stop offset="1" stop-color="#557AC3"/>
</linearGradient>
<linearGradient id="paint71_linear" x1="779.374" y1="463.599" x2="182.27" y2="684.569" gradientUnits="userSpaceOnUse">
<stop stop-color="#55ABC3"/>
<stop offset="1" stop-color="#557AC3"/>
</linearGradient>
<linearGradient id="paint72_linear" x1="778.934" y1="466.044" x2="178.064" y2="676.559" gradientUnits="userSpaceOnUse">
<stop stop-color="#55ABC3"/>
<stop offset="1" stop-color="#557AC3"/>
</linearGradient>
<linearGradient id="paint73_linear" x1="778.468" y1="468.397" x2="174.016" y2="668.394" gradientUnits="userSpaceOnUse">
<stop stop-color="#55ABC3"/>
<stop offset="1" stop-color="#557AC3"/>
</linearGradient>
<linearGradient id="paint74_linear" x1="777.968" y1="470.658" x2="170.117" y2="660.076" gradientUnits="userSpaceOnUse">
<stop stop-color="#55ABC3"/>
<stop offset="1" stop-color="#557AC3"/>
</linearGradient>
<linearGradient id="paint75_linear" x1="777.439" y1="472.827" x2="166.376" y2="651.607" gradientUnits="userSpaceOnUse">
<stop stop-color="#55ABC3"/>
<stop offset="1" stop-color="#557AC3"/>
</linearGradient>
<linearGradient id="paint76_linear" x1="776.883" y1="474.902" x2="162.792" y2="642.991" gradientUnits="userSpaceOnUse">
<stop stop-color="#55ABC3"/>
<stop offset="1" stop-color="#557AC3"/>
</linearGradient>
<linearGradient id="paint77_linear" x1="776.304" y1="476.885" x2="159.373" y2="634.23" gradientUnits="userSpaceOnUse">
<stop stop-color="#55ABC3"/>
<stop offset="1" stop-color="#557AC3"/>
</linearGradient>
<linearGradient id="paint78_linear" x1="775.699" y1="478.773" x2="156.116" y2="625.327" gradientUnits="userSpaceOnUse">
<stop stop-color="#55ABC3"/>
<stop offset="1" stop-color="#557AC3"/>
</linearGradient>
<linearGradient id="paint79_linear" x1="775.073" y1="480.567" x2="153.027" y2="616.286" gradientUnits="userSpaceOnUse">
<stop stop-color="#55ABC3"/>
<stop offset="1" stop-color="#557AC3"/>
</linearGradient>
<linearGradient id="paint80_linear" x1="774.423" y1="482.266" x2="150.102" y2="607.108" gradientUnits="userSpaceOnUse">
<stop stop-color="#55ABC3"/>
<stop offset="1" stop-color="#557AC3"/>
</linearGradient>
<linearGradient id="paint81_linear" x1="773.758" y1="483.869" x2="147.354" y2="597.797" gradientUnits="userSpaceOnUse">
<stop stop-color="#55ABC3"/>
<stop offset="1" stop-color="#557AC3"/>
</linearGradient>
<linearGradient id="paint82_linear" x1="773.076" y1="485.378" x2="144.779" y2="588.356" gradientUnits="userSpaceOnUse">
<stop stop-color="#55ABC3"/>
<stop offset="1" stop-color="#557AC3"/>
</linearGradient>
<linearGradient id="paint83_linear" x1="772.373" y1="486.791" x2="142.374" y2="578.788" gradientUnits="userSpaceOnUse">
<stop stop-color="#55ABC3"/>
<stop offset="1" stop-color="#557AC3"/>
</linearGradient>
<linearGradient id="paint84_linear" x1="771.659" y1="488.108" x2="140.151" y2="569.096" gradientUnits="userSpaceOnUse">
<stop stop-color="#55ABC3"/>
<stop offset="1" stop-color="#557AC3"/>
</linearGradient>
<linearGradient id="paint85_linear" x1="770.931" y1="489.329" x2="138.106" y2="559.283" gradientUnits="userSpaceOnUse">
<stop stop-color="#55ABC3"/>
<stop offset="1" stop-color="#557AC3"/>
</linearGradient>
<linearGradient id="paint86_linear" x1="770.193" y1="490.452" x2="136.243" y2="549.351" gradientUnits="userSpaceOnUse">
<stop stop-color="#55ABC3"/>
<stop offset="1" stop-color="#557AC3"/>
</linearGradient>
<linearGradient id="paint87_linear" x1="769.451" y1="491.481" x2="134.57" y2="539.307" gradientUnits="userSpaceOnUse">
<stop stop-color="#55ABC3"/>
<stop offset="1" stop-color="#557AC3"/>
</linearGradient>
<linearGradient id="paint88_linear" x1="768.693" y1="492.411" x2="133.074" y2="529.15" gradientUnits="userSpaceOnUse">
<stop stop-color="#55ABC3"/>
<stop offset="1" stop-color="#557AC3"/>
</linearGradient>
<linearGradient id="paint89_linear" x1="767.937" y1="493.246" x2="131.773" y2="518.886" gradientUnits="userSpaceOnUse">
<stop stop-color="#55ABC3"/>
<stop offset="1" stop-color="#557AC3"/>
</linearGradient>
<linearGradient id="paint90_linear" x1="767.175" y1="493.984" x2="130.661" y2="508.517" gradientUnits="userSpaceOnUse">
<stop stop-color="#55ABC3"/>
<stop offset="1" stop-color="#557AC3"/>
</linearGradient>
<linearGradient id="paint91_linear" x1="766.408" y1="494.623" x2="129.737" y2="498.046" gradientUnits="userSpaceOnUse">
<stop stop-color="#55ABC3"/>
<stop offset="1" stop-color="#557AC3"/>
</linearGradient>
<linearGradient id="paint92_linear" x1="765.642" y1="495.167" x2="129.009" y2="487.477" gradientUnits="userSpaceOnUse">
<stop stop-color="#55ABC3"/>
<stop offset="1" stop-color="#557AC3"/>
</linearGradient>
<linearGradient id="paint93_linear" x1="764.875" y1="495.613" x2="128.473" y2="476.814" gradientUnits="userSpaceOnUse">
<stop stop-color="#55ABC3"/>
<stop offset="1" stop-color="#557AC3"/>
</linearGradient>
<linearGradient id="paint94_linear" x1="764.116" y1="495.963" x2="128.139" y2="466.06" gradientUnits="userSpaceOnUse">
<stop stop-color="#55ABC3"/>
<stop offset="1" stop-color="#557AC3"/>
</linearGradient>
<linearGradient id="paint95_linear" x1="763.359" y1="496.216" x2="128.001" y2="455.218" gradientUnits="userSpaceOnUse">
<stop stop-color="#55ABC3"/>
<stop offset="1" stop-color="#557AC3"/>
</linearGradient>
<linearGradient id="paint96_linear" x1="762.611" y1="496.372" x2="128.065" y2="444.292" gradientUnits="userSpaceOnUse">
<stop stop-color="#55ABC3"/>
<stop offset="1" stop-color="#557AC3"/>
</linearGradient>
<linearGradient id="paint97_linear" x1="761.867" y1="496.431" x2="128.326" y2="433.285" gradientUnits="userSpaceOnUse">
<stop stop-color="#55ABC3"/>
<stop offset="1" stop-color="#557AC3"/>
</linearGradient>
<linearGradient id="paint98_linear" x1="761.134" y1="496.394" x2="128.792" y2="422.2" gradientUnits="userSpaceOnUse">
<stop stop-color="#55ABC3"/>
<stop offset="1" stop-color="#557AC3"/>
</linearGradient>
</defs>
</svg>
